<?xml version="1.0" encoding="UTF-8"?>
<svg version="1.1" xmlns="http://www.w3.org/2000/svg" width="500" height="500">
<path d="M0 0 C165 0 330 0 500 0 C500 165 500 330 500 500 C335 500 170 500 0 500 C0 335 0 170 0 0 Z " fill="#FEFEFE" transform="translate(0,0)"/>
<path d="M0 0 C2.09134374 1.82370716 4.14519775 3.68418321 6.1875 5.5625 C7.06019531 6.35269531 7.93289063 7.14289063 8.83203125 7.95703125 C24.95461601 23.2671393 36.17384334 43.26302883 42.1875 64.5625 C42.40792969 65.26890625 42.62835938 65.9753125 42.85546875 66.703125 C45.71701005 76.60018513 46.1875 87.36469035 46.1875 97.5625 C29.6875 97.5625 13.1875 97.5625 -3.8125 97.5625 C-4.8025 90.6325 -4.8025 90.6325 -5.8125 83.5625 C-6.1425 83.2325 -6.4725 82.9025 -6.8125 82.5625 C-9.61659485 83.05150537 -12.37089719 83.60867792 -15.1484375 84.22265625 C-16.43617317 84.50049706 -16.43617317 84.50049706 -17.74992371 84.78395081 C-19.60013726 85.18409667 -21.44976237 85.58697098 -23.29885864 85.99224854 C-26.18485928 86.62442155 -29.07252531 87.24841652 -31.96069336 87.87060547 C-40.41921536 89.69817221 -48.86887158 91.55455112 -57.29296875 93.53515625 C-58.51000488 93.8180249 -59.72704102 94.10089355 -60.98095703 94.39233398 C-63.17384593 94.90609022 -65.36391511 95.43210556 -67.55029297 95.97290039 C-73.39453156 97.34048507 -78.93068913 98.27136799 -84.8125 96.5625 C-88.12380167 93.87206739 -90.54972198 91.68349401 -91.0859375 87.35546875 C-91.36192724 80.27527047 -91.36192724 80.27527047 -88.5 76.5625 C-83.45495657 72.80804908 -80.07392332 72.17055929 -73.9140625 71.9296875 C-73.0189798 71.88803467 -72.12389709 71.84638184 -71.20169067 71.8034668 C-68.28064024 71.67124271 -65.3592291 71.55368551 -62.4375 71.4375 C-60.43912502 71.35178549 -58.44075263 71.26601055 -56.44238281 71.18017578 C-40.89188593 70.53783972 -25.37526345 70.31098841 -9.8125 70.5625 C-14.70409514 59.51786685 -20.00755069 50.86999454 -28.8125 42.5625 C-29.58078125 41.82515625 -30.3490625 41.0878125 -31.140625 40.328125 C-46.40549227 26.93242515 -66.69976936 22.15598982 -86.60009766 23.35986328 C-105.30347778 25.07292944 -122.91109748 34.38850343 -135.3046875 48.375 C-147.16246221 63.38686293 -152.10372568 78.76598248 -153.8125 97.5625 C-170.3125 97.5625 -186.8125 97.5625 -203.8125 97.5625 C-203.8125 78.93366123 -203.8125 78.93366123 -202.1875 72.0625 C-202.00928711 71.27262695 -201.83107422 70.48275391 -201.64746094 69.66894531 C-193.95933331 37.23831557 -173.22597907 8.11592521 -144.8125 -9.4375 C-100.65383432 -36.3986652 -39.99593702 -33.74546414 0 0 Z " fill="#17A637" transform="translate(328.8125,152.4375)"/>
<path d="M0 0 C-0.33 1.65 -0.66 3.3 -1 5 C-2.60210327 5.33825806 -2.60210327 5.33825806 -4.23657227 5.68334961 C-23.24786952 9.70280926 -42.24395373 13.76818088 -61.1690979 18.17782593 C-68.11045593 19.79501787 -75.05489073 21.39900381 -82 23 C-83.27810547 23.29487305 -84.55621094 23.58974609 -85.87304688 23.89355469 C-89.20361688 24.65397124 -92.53787044 25.3939946 -95.875 26.125 C-96.79490723 26.33737305 -97.71481445 26.54974609 -98.66259766 26.76855469 C-104.18374558 27.94949301 -109.4750452 28.5153636 -115 27 C-118.31130167 24.30956739 -120.73722198 22.12099401 -121.2734375 17.79296875 C-121.54942724 10.71277047 -121.54942724 10.71277047 -118.6875 7 C-114.24680928 3.69529993 -112.00765915 2.72420897 -106.48535156 2.49755859 C-105.82512056 2.46801433 -105.16488956 2.43847006 -104.48465157 2.40803051 C-102.28692453 2.31224454 -100.08891777 2.23012906 -97.890625 2.1484375 C-96.34011252 2.08453123 -94.78962653 2.01997943 -93.23916626 1.95481873 C-89.09705725 1.78377498 -84.9545487 1.62580477 -80.81179047 1.47137833 C-78.25903368 1.37533986 -75.70644293 1.2756858 -73.15386963 1.17489624 C-48.76670423 0.21525742 -24.40822005 -0.48301227 0 0 Z " fill="#18110F" transform="translate(359,222)"/>
</svg>
